<svg t="1670420324736" class="icon" viewBox="0 0 1024 1024" version="1.1" xmlns="http://www.w3.org/2000/svg" p-id="6645" width="16" height="16"><path d="M515 297.1c93 0 185.1 70.4 245.9 129.5 31.1 30.2 57.6 60.8 77.9 86.3-19.5 24.2-44.8 53-74.3 81.6-61.7 59.7-155 130.9-249.6 130.9-93.2 0-185.3-70-246.2-128.7-31-29.9-57.4-60.2-77.7-85.5 19.6-24.4 44.9-53.5 74.5-82.4 61.9-60.1 155.2-131.7 249.5-131.7m0-114.1C258.1 183 49.8 511.2 49.8 511.2S258.1 839.5 515 839.5s465.2-326.2 465.2-326.2S772 183 515 183z" p-id="6646" fill="#707070"></path><path d="M515 511.2m-109.1 0a109.1 109.1 0 1 0 218.2 0 109.1 109.1 0 1 0-218.2 0Z" p-id="6647" fill="#707070"></path></svg>
